<?xml version="1.0" encoding="utf-8"?>
<!-- Generator: Adobe Illustrator 18.1.1, SVG Export Plug-In . SVG Version: 6.00 Build 0)  -->
<svg version="1.1" id="Layer_1" xmlns="http://www.w3.org/2000/svg" xmlns:xlink="http://www.w3.org/1999/xlink" x="0px" y="0px"
	 viewBox="0 0 288 270.7" enable-background="new 0 0 288 270.7" xml:space="preserve">
<g>
	<path fill="#468966" d="M269.9,196.7c0,11-8.3,23.5-18.4,27.8l-89.8,38.3c-10.1,4.3-26.7,4.3-36.8-0.1l-88.7-38.2
		c-10.1-4.4-18.4-16.9-18.4-27.9v-122c0-11,8.3-23.6,18.3-28L125,8c10.1-4.4,26.6-4.4,36.7-0.1l89.9,38.8
		c10.1,4.4,18.4,16.9,18.4,27.9V196.7z"/>
</g>
<g>
	<path fill="#FFFCCE" d="M130.9,119.7c-0.9,4.8-2.4,11.9-3.1,14.4l-11.2,41.7H94.2l-12-42.7c-0.5-1.8-1.9-7.9-2.2-13.3h-0.4v42.2
		h6.1v13.8h-29v-13.8h5.8v-47.2h-5.7v-13.8h40.6l10.8,40.1l10.3-40.1h40.8v13.8h-5.9v47.1h5.9v13.9h-33.9v-13.9h6.1l-0.1-35.8v-6.3
		H130.9z"/>
	<path fill="#FFFCCE" d="M164.6,175.8v-13.9h6.2v-47.1h-6.2v-13.8h40c17.8,0,26.2,6.6,26.2,18.3c0,9-2.5,13.4-10.5,16.6
		c7.7,2.1,14.1,7.8,14.1,18.2c0,15.1-8.5,21.7-29.1,21.7H164.6z M193,115v16.1h6.5c5.7,0,7.3-3.1,7.3-8.2c0-4.9-3-7.8-7.1-7.8H193z
		 M210.2,152.6c0-5.5-3.1-9.4-9-9.4H193v18.6h8.6C206,161.8,210.2,158.4,210.2,152.6z"/>
</g>
<line fill="none" stroke="#FFFFFF" stroke-width="3" stroke-miterlimit="10" x1="47.9" y1="193.5" x2="243.9" y2="193.5"/>
<line fill="none" stroke="#FFFFFF" stroke-width="3" stroke-miterlimit="10" x1="46.9" y1="193.5" x2="242.9" y2="193.5"/>
<line fill="none" stroke="#FFFCCE" stroke-width="3" stroke-miterlimit="10" x1="47.9" y1="193.5" x2="243.9" y2="193.5"/>
<line fill="none" stroke="#FFFCCE" stroke-width="3" stroke-miterlimit="10" x1="40.9" y1="83.5" x2="243.9" y2="83.5"/>
<g>
</g>
<g>
</g>
<g>
</g>
<g>
</g>
<g>
</g>
<g>
</g>
<g>
</g>
<g>
</g>
<g>
</g>
<g>
</g>
<g>
</g>
<g>
</g>
<g>
</g>
<g>
</g>
<g>
</g>
</svg>
